<mxfile host="Electron" agent="Mozilla/5.0 (Windows NT 10.0; Win64; x64) AppleWebKit/537.36 (KHTML, like Gecko) draw.io/28.2.5 Chrome/138.0.7204.251 Electron/37.6.1 Safari/537.36" version="28.2.5">
  <diagram name="Page-1" id="N1ZM6T20fnDz_QbpjG7V">
    <mxGraphModel dx="2037" dy="1201" grid="0" gridSize="10" guides="1" tooltips="1" connect="1" arrows="1" fold="1" page="1" pageScale="1" pageWidth="1920" pageHeight="1200" math="0" shadow="0">
      <root>
        <mxCell id="0" />
        <mxCell id="1" parent="0" />
        <mxCell id="BD0qbniEymoDuLXpr2JN-53" value="&lt;font style=&quot;font-size: 70px;&quot;&gt;Data Integration&lt;/font&gt;" style="text;html=1;align=center;verticalAlign=middle;whiteSpace=wrap;rounded=1;fillColor=#f5f5f5;strokeColor=#666666;fontColor=#333333;" vertex="1" parent="1">
          <mxGeometry x="660" y="90" width="600" height="100" as="geometry" />
        </mxCell>
        <mxCell id="BD0qbniEymoDuLXpr2JN-54" value="" style="group" vertex="1" connectable="0" parent="1">
          <mxGeometry x="205" y="280" width="1510" height="705" as="geometry" />
        </mxCell>
        <mxCell id="BD0qbniEymoDuLXpr2JN-49" value="" style="rounded=1;whiteSpace=wrap;html=1;fillColor=none;dashed=1;" vertex="1" parent="BD0qbniEymoDuLXpr2JN-54">
          <mxGeometry y="35" width="830" height="670" as="geometry" />
        </mxCell>
        <mxCell id="BD0qbniEymoDuLXpr2JN-51" value="" style="rounded=1;whiteSpace=wrap;html=1;fillColor=none;dashed=1;" vertex="1" parent="BD0qbniEymoDuLXpr2JN-54">
          <mxGeometry x="860" y="35" width="650" height="670" as="geometry" />
        </mxCell>
        <mxCell id="BD0qbniEymoDuLXpr2JN-1" value="&lt;font style=&quot;font-size: 25px;&quot;&gt;&lt;b&gt;crm_cust_info&lt;/b&gt;&lt;/font&gt;" style="swimlane;fontStyle=0;childLayout=stackLayout;horizontal=1;startSize=40;horizontalStack=0;resizeParent=1;resizeParentMax=0;resizeLast=0;collapsible=1;marginBottom=0;whiteSpace=wrap;html=1;rounded=1;fontSize=30;fillColor=#dae8fc;strokeColor=#6c8ebf;" vertex="1" parent="BD0qbniEymoDuLXpr2JN-54">
          <mxGeometry x="472.5" y="180" width="240" height="120" as="geometry" />
        </mxCell>
        <mxCell id="BD0qbniEymoDuLXpr2JN-2" value="&lt;font style=&quot;font-size: 24px;&quot;&gt;cst_id&lt;/font&gt;" style="text;strokeColor=none;fillColor=none;align=left;verticalAlign=middle;spacingLeft=4;spacingRight=4;overflow=hidden;points=[[0,0.5],[1,0.5]];portConstraint=eastwest;rotatable=0;whiteSpace=wrap;html=1;fontSize=30;" vertex="1" parent="BD0qbniEymoDuLXpr2JN-1">
          <mxGeometry y="40" width="240" height="40" as="geometry" />
        </mxCell>
        <mxCell id="BD0qbniEymoDuLXpr2JN-24" value="&lt;font style=&quot;font-size: 24px;&quot;&gt;cst_key&lt;/font&gt;" style="text;strokeColor=none;fillColor=none;align=left;verticalAlign=middle;spacingLeft=4;spacingRight=4;overflow=hidden;points=[[0,0.5],[1,0.5]];portConstraint=eastwest;rotatable=0;whiteSpace=wrap;html=1;fontSize=30;" vertex="1" parent="BD0qbniEymoDuLXpr2JN-1">
          <mxGeometry y="80" width="240" height="40" as="geometry" />
        </mxCell>
        <mxCell id="BD0qbniEymoDuLXpr2JN-7" value="&lt;font style=&quot;font-size: 24px;&quot;&gt;Customer Information&lt;/font&gt;" style="text;html=1;align=center;verticalAlign=middle;whiteSpace=wrap;rounded=0;" vertex="1" parent="BD0qbniEymoDuLXpr2JN-54">
          <mxGeometry x="427.5" y="140" width="330" height="30" as="geometry" />
        </mxCell>
        <mxCell id="BD0qbniEymoDuLXpr2JN-8" value="&lt;font style=&quot;font-size: 25px;&quot;&gt;&lt;b&gt;crm_prd_info&lt;/b&gt;&lt;/font&gt;" style="swimlane;fontStyle=0;childLayout=stackLayout;horizontal=1;startSize=40;horizontalStack=0;resizeParent=1;resizeParentMax=0;resizeLast=0;collapsible=1;marginBottom=0;whiteSpace=wrap;html=1;rounded=1;fontSize=30;fillColor=#dae8fc;strokeColor=#6c8ebf;" vertex="1" parent="BD0qbniEymoDuLXpr2JN-54">
          <mxGeometry x="472.5" y="440" width="240" height="110" as="geometry" />
        </mxCell>
        <mxCell id="BD0qbniEymoDuLXpr2JN-9" value="&lt;font style=&quot;font-size: 24px;&quot;&gt;prd_key&lt;/font&gt;" style="text;strokeColor=none;fillColor=none;align=left;verticalAlign=middle;spacingLeft=4;spacingRight=4;overflow=hidden;points=[[0,0.5],[1,0.5]];portConstraint=eastwest;rotatable=0;whiteSpace=wrap;html=1;fontSize=30;" vertex="1" parent="BD0qbniEymoDuLXpr2JN-8">
          <mxGeometry y="40" width="240" height="40" as="geometry" />
        </mxCell>
        <mxCell id="BD0qbniEymoDuLXpr2JN-10" style="text;strokeColor=none;fillColor=none;align=left;verticalAlign=middle;spacingLeft=4;spacingRight=4;overflow=hidden;points=[[0,0.5],[1,0.5]];portConstraint=eastwest;rotatable=0;whiteSpace=wrap;html=1;fontSize=30;" vertex="1" parent="BD0qbniEymoDuLXpr2JN-8">
          <mxGeometry y="80" width="240" height="30" as="geometry" />
        </mxCell>
        <mxCell id="BD0qbniEymoDuLXpr2JN-11" value="&lt;font style=&quot;font-size: 24px;&quot;&gt;Current &amp;amp; History Product Information&lt;/font&gt;" style="text;html=1;align=center;verticalAlign=middle;whiteSpace=wrap;rounded=0;" vertex="1" parent="BD0qbniEymoDuLXpr2JN-54">
          <mxGeometry x="390" y="400" width="405" height="40" as="geometry" />
        </mxCell>
        <mxCell id="BD0qbniEymoDuLXpr2JN-12" value="&lt;font style=&quot;font-size: 25px;&quot;&gt;&lt;b&gt;crm_sales_details&lt;/b&gt;&lt;/font&gt;" style="swimlane;fontStyle=0;childLayout=stackLayout;horizontal=1;startSize=40;horizontalStack=0;resizeParent=1;resizeParentMax=0;resizeLast=0;collapsible=1;marginBottom=0;whiteSpace=wrap;html=1;rounded=1;fontSize=30;fillColor=#dae8fc;strokeColor=#6c8ebf;" vertex="1" parent="BD0qbniEymoDuLXpr2JN-54">
          <mxGeometry x="45" y="270" width="240" height="150" as="geometry" />
        </mxCell>
        <mxCell id="BD0qbniEymoDuLXpr2JN-13" value="&lt;font style=&quot;font-size: 24px;&quot;&gt;sls_cust_id&lt;/font&gt;" style="text;strokeColor=none;fillColor=none;align=left;verticalAlign=middle;spacingLeft=4;spacingRight=4;overflow=hidden;points=[[0,0.5],[1,0.5]];portConstraint=eastwest;rotatable=0;whiteSpace=wrap;html=1;fontSize=30;" vertex="1" parent="BD0qbniEymoDuLXpr2JN-12">
          <mxGeometry y="40" width="240" height="40" as="geometry" />
        </mxCell>
        <mxCell id="BD0qbniEymoDuLXpr2JN-16" value="&lt;font style=&quot;font-size: 24px;&quot;&gt;sls_prd_key&lt;/font&gt;&lt;div&gt;&lt;font style=&quot;font-size: 24px;&quot;&gt;&lt;br&gt;&lt;/font&gt;&lt;/div&gt;" style="text;strokeColor=none;fillColor=none;align=left;verticalAlign=middle;spacingLeft=4;spacingRight=4;overflow=hidden;points=[[0,0.5],[1,0.5]];portConstraint=eastwest;rotatable=0;whiteSpace=wrap;html=1;fontSize=30;" vertex="1" parent="BD0qbniEymoDuLXpr2JN-12">
          <mxGeometry y="80" width="240" height="40" as="geometry" />
        </mxCell>
        <mxCell id="BD0qbniEymoDuLXpr2JN-14" style="text;strokeColor=none;fillColor=none;align=left;verticalAlign=middle;spacingLeft=4;spacingRight=4;overflow=hidden;points=[[0,0.5],[1,0.5]];portConstraint=eastwest;rotatable=0;whiteSpace=wrap;html=1;fontSize=30;" vertex="1" parent="BD0qbniEymoDuLXpr2JN-12">
          <mxGeometry y="120" width="240" height="30" as="geometry" />
        </mxCell>
        <mxCell id="BD0qbniEymoDuLXpr2JN-15" value="&lt;font style=&quot;font-size: 24px;&quot;&gt;Transactional Records about Sales &amp;amp; Orders&lt;/font&gt;" style="text;html=1;align=center;verticalAlign=middle;whiteSpace=wrap;rounded=0;" vertex="1" parent="BD0qbniEymoDuLXpr2JN-54">
          <mxGeometry y="200" width="330" height="70" as="geometry" />
        </mxCell>
        <mxCell id="BD0qbniEymoDuLXpr2JN-17" style="edgeStyle=orthogonalEdgeStyle;rounded=0;orthogonalLoop=1;jettySize=auto;html=1;" edge="1" parent="BD0qbniEymoDuLXpr2JN-54" source="BD0qbniEymoDuLXpr2JN-13" target="BD0qbniEymoDuLXpr2JN-2">
          <mxGeometry relative="1" as="geometry" />
        </mxCell>
        <mxCell id="BD0qbniEymoDuLXpr2JN-18" style="edgeStyle=orthogonalEdgeStyle;rounded=0;orthogonalLoop=1;jettySize=auto;html=1;entryX=0;entryY=0.5;entryDx=0;entryDy=0;" edge="1" parent="BD0qbniEymoDuLXpr2JN-54" source="BD0qbniEymoDuLXpr2JN-16" target="BD0qbniEymoDuLXpr2JN-9">
          <mxGeometry relative="1" as="geometry" />
        </mxCell>
        <mxCell id="BD0qbniEymoDuLXpr2JN-20" value="&lt;span style=&quot;font-size: 25px;&quot;&gt;&lt;b&gt;erp_cust_az12&lt;/b&gt;&lt;/span&gt;" style="swimlane;fontStyle=0;childLayout=stackLayout;horizontal=1;startSize=40;horizontalStack=0;resizeParent=1;resizeParentMax=0;resizeLast=0;collapsible=1;marginBottom=0;whiteSpace=wrap;html=1;rounded=1;fontSize=30;fillColor=#fff2cc;strokeColor=#d6b656;" vertex="1" parent="BD0qbniEymoDuLXpr2JN-54">
          <mxGeometry x="1070" y="110" width="240" height="110" as="geometry" />
        </mxCell>
        <mxCell id="BD0qbniEymoDuLXpr2JN-21" value="&lt;font style=&quot;font-size: 24px;&quot;&gt;cst_id&lt;/font&gt;" style="text;strokeColor=none;fillColor=none;align=left;verticalAlign=middle;spacingLeft=4;spacingRight=4;overflow=hidden;points=[[0,0.5],[1,0.5]];portConstraint=eastwest;rotatable=0;whiteSpace=wrap;html=1;fontSize=30;" vertex="1" parent="BD0qbniEymoDuLXpr2JN-20">
          <mxGeometry y="40" width="240" height="40" as="geometry" />
        </mxCell>
        <mxCell id="BD0qbniEymoDuLXpr2JN-22" style="text;strokeColor=none;fillColor=none;align=left;verticalAlign=middle;spacingLeft=4;spacingRight=4;overflow=hidden;points=[[0,0.5],[1,0.5]];portConstraint=eastwest;rotatable=0;whiteSpace=wrap;html=1;fontSize=30;" vertex="1" parent="BD0qbniEymoDuLXpr2JN-20">
          <mxGeometry y="80" width="240" height="30" as="geometry" />
        </mxCell>
        <mxCell id="BD0qbniEymoDuLXpr2JN-23" value="&lt;font style=&quot;font-size: 24px;&quot;&gt;Extra Customer Information (birthdate)&lt;/font&gt;" style="text;html=1;align=center;verticalAlign=middle;whiteSpace=wrap;rounded=0;" vertex="1" parent="BD0qbniEymoDuLXpr2JN-54">
          <mxGeometry x="970" y="70" width="440" height="30" as="geometry" />
        </mxCell>
        <mxCell id="BD0qbniEymoDuLXpr2JN-26" style="edgeStyle=orthogonalEdgeStyle;rounded=0;orthogonalLoop=1;jettySize=auto;html=1;entryX=1;entryY=0.5;entryDx=0;entryDy=0;" edge="1" parent="BD0qbniEymoDuLXpr2JN-54" source="BD0qbniEymoDuLXpr2JN-21" target="BD0qbniEymoDuLXpr2JN-24">
          <mxGeometry relative="1" as="geometry" />
        </mxCell>
        <mxCell id="BD0qbniEymoDuLXpr2JN-27" value="&lt;span style=&quot;font-size: 25px;&quot;&gt;&lt;b&gt;erp_loc_a101&lt;/b&gt;&lt;/span&gt;" style="swimlane;fontStyle=0;childLayout=stackLayout;horizontal=1;startSize=40;horizontalStack=0;resizeParent=1;resizeParentMax=0;resizeLast=0;collapsible=1;marginBottom=0;whiteSpace=wrap;html=1;rounded=1;fontSize=30;fillColor=#fff2cc;strokeColor=#d6b656;" vertex="1" parent="BD0qbniEymoDuLXpr2JN-54">
          <mxGeometry x="1070" y="330" width="240" height="110" as="geometry" />
        </mxCell>
        <mxCell id="BD0qbniEymoDuLXpr2JN-28" value="&lt;font style=&quot;font-size: 24px;&quot;&gt;cst_id&lt;/font&gt;" style="text;strokeColor=none;fillColor=none;align=left;verticalAlign=middle;spacingLeft=4;spacingRight=4;overflow=hidden;points=[[0,0.5],[1,0.5]];portConstraint=eastwest;rotatable=0;whiteSpace=wrap;html=1;fontSize=30;" vertex="1" parent="BD0qbniEymoDuLXpr2JN-27">
          <mxGeometry y="40" width="240" height="40" as="geometry" />
        </mxCell>
        <mxCell id="BD0qbniEymoDuLXpr2JN-29" style="text;strokeColor=none;fillColor=none;align=left;verticalAlign=middle;spacingLeft=4;spacingRight=4;overflow=hidden;points=[[0,0.5],[1,0.5]];portConstraint=eastwest;rotatable=0;whiteSpace=wrap;html=1;fontSize=30;" vertex="1" parent="BD0qbniEymoDuLXpr2JN-27">
          <mxGeometry y="80" width="240" height="30" as="geometry" />
        </mxCell>
        <mxCell id="BD0qbniEymoDuLXpr2JN-30" value="&lt;font style=&quot;font-size: 24px;&quot;&gt;Location of the Customer (country)&lt;/font&gt;" style="text;html=1;align=center;verticalAlign=middle;whiteSpace=wrap;rounded=0;" vertex="1" parent="BD0qbniEymoDuLXpr2JN-54">
          <mxGeometry x="970" y="290" width="440" height="30" as="geometry" />
        </mxCell>
        <mxCell id="BD0qbniEymoDuLXpr2JN-31" style="edgeStyle=orthogonalEdgeStyle;rounded=0;orthogonalLoop=1;jettySize=auto;html=1;entryX=1;entryY=0.5;entryDx=0;entryDy=0;endArrow=none;endFill=0;" edge="1" parent="BD0qbniEymoDuLXpr2JN-54" source="BD0qbniEymoDuLXpr2JN-28" target="BD0qbniEymoDuLXpr2JN-24">
          <mxGeometry relative="1" as="geometry">
            <Array as="points">
              <mxPoint x="891" y="390" />
              <mxPoint x="891" y="280" />
            </Array>
          </mxGeometry>
        </mxCell>
        <mxCell id="BD0qbniEymoDuLXpr2JN-32" value="&lt;span style=&quot;font-size: 25px;&quot;&gt;&lt;b&gt;erp_px_cat_g1v2&lt;/b&gt;&lt;/span&gt;" style="swimlane;fontStyle=0;childLayout=stackLayout;horizontal=1;startSize=40;horizontalStack=0;resizeParent=1;resizeParentMax=0;resizeLast=0;collapsible=1;marginBottom=0;whiteSpace=wrap;html=1;rounded=1;fontSize=30;fillColor=#fff2cc;strokeColor=#d6b656;" vertex="1" parent="BD0qbniEymoDuLXpr2JN-54">
          <mxGeometry x="1070" y="540" width="240" height="110" as="geometry" />
        </mxCell>
        <mxCell id="BD0qbniEymoDuLXpr2JN-33" value="&lt;font style=&quot;font-size: 24px;&quot;&gt;id&lt;/font&gt;" style="text;strokeColor=none;fillColor=none;align=left;verticalAlign=middle;spacingLeft=4;spacingRight=4;overflow=hidden;points=[[0,0.5],[1,0.5]];portConstraint=eastwest;rotatable=0;whiteSpace=wrap;html=1;fontSize=30;" vertex="1" parent="BD0qbniEymoDuLXpr2JN-32">
          <mxGeometry y="40" width="240" height="40" as="geometry" />
        </mxCell>
        <mxCell id="BD0qbniEymoDuLXpr2JN-34" style="text;strokeColor=none;fillColor=none;align=left;verticalAlign=middle;spacingLeft=4;spacingRight=4;overflow=hidden;points=[[0,0.5],[1,0.5]];portConstraint=eastwest;rotatable=0;whiteSpace=wrap;html=1;fontSize=30;" vertex="1" parent="BD0qbniEymoDuLXpr2JN-32">
          <mxGeometry y="80" width="240" height="30" as="geometry" />
        </mxCell>
        <mxCell id="BD0qbniEymoDuLXpr2JN-35" value="&lt;font style=&quot;font-size: 24px;&quot;&gt;Product Categories&lt;/font&gt;" style="text;html=1;align=center;verticalAlign=middle;whiteSpace=wrap;rounded=0;" vertex="1" parent="BD0qbniEymoDuLXpr2JN-54">
          <mxGeometry x="1072.5" y="500" width="235" height="30" as="geometry" />
        </mxCell>
        <mxCell id="BD0qbniEymoDuLXpr2JN-37" style="edgeStyle=orthogonalEdgeStyle;rounded=0;orthogonalLoop=1;jettySize=auto;html=1;entryX=1;entryY=0.5;entryDx=0;entryDy=0;" edge="1" parent="BD0qbniEymoDuLXpr2JN-54" source="BD0qbniEymoDuLXpr2JN-33" target="BD0qbniEymoDuLXpr2JN-9">
          <mxGeometry relative="1" as="geometry">
            <Array as="points">
              <mxPoint x="900" y="600" />
              <mxPoint x="900" y="500" />
            </Array>
          </mxGeometry>
        </mxCell>
        <mxCell id="BD0qbniEymoDuLXpr2JN-50" value="&lt;font style=&quot;font-size: 40px;&quot;&gt;CRM&lt;/font&gt;" style="rounded=1;whiteSpace=wrap;html=1;fillColor=#dae8fc;strokeColor=#6c8ebf;" vertex="1" parent="BD0qbniEymoDuLXpr2JN-54">
          <mxGeometry x="310" width="200" height="60" as="geometry" />
        </mxCell>
        <mxCell id="BD0qbniEymoDuLXpr2JN-52" value="&lt;font style=&quot;font-size: 40px;&quot;&gt;ERP&lt;/font&gt;" style="rounded=1;whiteSpace=wrap;html=1;fillColor=#fff2cc;strokeColor=#d6b656;" vertex="1" parent="BD0qbniEymoDuLXpr2JN-54">
          <mxGeometry x="1085" width="200" height="60" as="geometry" />
        </mxCell>
      </root>
    </mxGraphModel>
  </diagram>
</mxfile>
